<svg id="Layer_1" data-name="Layer 1" xmlns="http://www.w3.org/2000/svg" viewBox="0 0 177.68 99.35"><defs><style>.cls-1{fill:#38a4dd;}.cls-2,.cls-3,.cls-4{fill:none;stroke:#38a4dd;stroke-miterlimit:10;}.cls-2,.cls-3{stroke-width:5px;}.cls-3,.cls-4{stroke-linecap:square;}.cls-4{stroke-width:0.5px;}</style></defs><title>Rocket</title><path class="cls-1" d="M213.09,49.74v1.82S185.17,79,115.52,77.7l-47.87-7V30.56l47.87-7C185.17,22.26,213.09,49.74,213.09,49.74ZM188,50.65c0-7.71-7-13.95-15.56-13.95s-15.58,6.24-15.58,13.95,7,13.95,15.58,13.95S188,58.36,188,50.65Z" transform="translate(-37.9 -0.97)"/><path class="cls-1" d="M115.52,23.6l-47.87,7C75.17,23.47,115.52,23.6,115.52,23.6Z" transform="translate(-37.9 -0.97)"/><path class="cls-1" d="M115.52,77.7s-40.35.13-47.87-7Z" transform="translate(-37.9 -0.97)"/><path class="cls-2" d="M115.52,23.6s-40.35-.13-47.87,7" transform="translate(-37.9 -0.97)"/><polyline class="cls-3" points="14 58.98 3.73 49.68 14 40.38"/><path class="cls-2" d="M67.65,50.65v25L96,97,115.52,77.7c69.65,1.34,97.57-26.14,97.57-26.14V49.74S185.17,22.26,115.52,23.6L96,4.27,67.65,25.61v25" transform="translate(-37.9 -0.97)"/><path class="cls-2" d="M115.52,77.7s-40.35.13-47.87-7" transform="translate(-37.9 -0.97)"/><path class="cls-4" d="M188,50.65c0,7.71-7,13.95-15.56,13.95s-15.58-6.24-15.58-13.95,7-13.95,15.58-13.95S188,42.94,188,50.65Z" transform="translate(-37.9 -0.97)"/></svg>